<mxfile host="app.diagrams.net" modified="2022-11-08T19:13:50.950Z" agent="5.0 (X11; Linux x86_64) AppleWebKit/537.36 (KHTML, like Gecko) Chrome/107.0.0.0 Safari/537.36 Edg/107.0.1418.35" etag="GVYDWpWaFHdwc-NwYjH5" version="20.5.3" type="github">
  <diagram id="h_nkCJeNbxuBH3u3GuZV" name="Page-1">
    <mxGraphModel dx="1289" dy="742" grid="1" gridSize="10" guides="1" tooltips="1" connect="1" arrows="1" fold="1" page="1" pageScale="1" pageWidth="850" pageHeight="1100" math="0" shadow="0">
      <root>
        <mxCell id="0" />
        <mxCell id="1" parent="0" />
        <mxCell id="tKDoVAYZ7wEW3-KZ-8f7-16" value="Game (Facade)" style="swimlane;fontStyle=1;align=center;verticalAlign=top;childLayout=stackLayout;horizontal=1;startSize=26;horizontalStack=0;resizeParent=1;resizeParentMax=0;resizeLast=0;collapsible=1;marginBottom=0;fontFamily=Courier New;" parent="1" vertex="1">
          <mxGeometry x="40" y="90" width="220" height="190" as="geometry" />
        </mxCell>
        <mxCell id="tKDoVAYZ7wEW3-KZ-8f7-20" value="- Board board" style="text;strokeColor=none;fillColor=none;align=left;verticalAlign=top;spacingLeft=4;spacingRight=4;overflow=hidden;rotatable=0;points=[[0,0.5],[1,0.5]];portConstraint=eastwest;fontFamily=Courier New;" parent="tKDoVAYZ7wEW3-KZ-8f7-16" vertex="1">
          <mxGeometry y="26" width="220" height="26" as="geometry" />
        </mxCell>
        <mxCell id="tKDoVAYZ7wEW3-KZ-8f7-28" value="- MoveGenerator moveGenerator" style="text;strokeColor=none;fillColor=none;align=left;verticalAlign=top;spacingLeft=4;spacingRight=4;overflow=hidden;rotatable=0;points=[[0,0.5],[1,0.5]];portConstraint=eastwest;fontFamily=Courier New;" parent="tKDoVAYZ7wEW3-KZ-8f7-16" vertex="1">
          <mxGeometry y="52" width="220" height="26" as="geometry" />
        </mxCell>
        <mxCell id="tKDoVAYZ7wEW3-KZ-8f7-18" value="" style="line;strokeWidth=1;fillColor=none;align=left;verticalAlign=middle;spacingTop=-1;spacingLeft=3;spacingRight=3;rotatable=0;labelPosition=right;points=[];portConstraint=eastwest;strokeColor=inherit;fontFamily=Courier New;" parent="tKDoVAYZ7wEW3-KZ-8f7-16" vertex="1">
          <mxGeometry y="78" width="220" height="8" as="geometry" />
        </mxCell>
        <mxCell id="tKDoVAYZ7wEW3-KZ-8f7-19" value="+ generateMoves(): Move[]" style="text;strokeColor=none;fillColor=none;align=left;verticalAlign=top;spacingLeft=4;spacingRight=4;overflow=hidden;rotatable=0;points=[[0,0.5],[1,0.5]];portConstraint=eastwest;fontFamily=Courier New;" parent="tKDoVAYZ7wEW3-KZ-8f7-16" vertex="1">
          <mxGeometry y="86" width="220" height="26" as="geometry" />
        </mxCell>
        <mxCell id="tKDoVAYZ7wEW3-KZ-8f7-21" value="+ makeMove(Move)" style="text;strokeColor=none;fillColor=none;align=left;verticalAlign=top;spacingLeft=4;spacingRight=4;overflow=hidden;rotatable=0;points=[[0,0.5],[1,0.5]];portConstraint=eastwest;fontFamily=Courier New;" parent="tKDoVAYZ7wEW3-KZ-8f7-16" vertex="1">
          <mxGeometry y="112" width="220" height="26" as="geometry" />
        </mxCell>
        <mxCell id="tKDoVAYZ7wEW3-KZ-8f7-22" value="+ undo()" style="text;strokeColor=none;fillColor=none;align=left;verticalAlign=top;spacingLeft=4;spacingRight=4;overflow=hidden;rotatable=0;points=[[0,0.5],[1,0.5]];portConstraint=eastwest;fontFamily=Courier New;" parent="tKDoVAYZ7wEW3-KZ-8f7-16" vertex="1">
          <mxGeometry y="138" width="220" height="26" as="geometry" />
        </mxCell>
        <mxCell id="tKDoVAYZ7wEW3-KZ-8f7-37" value="+ getTurn(): boolean" style="text;strokeColor=none;fillColor=none;align=left;verticalAlign=top;spacingLeft=4;spacingRight=4;overflow=hidden;rotatable=0;points=[[0,0.5],[1,0.5]];portConstraint=eastwest;fontFamily=Courier New;" parent="tKDoVAYZ7wEW3-KZ-8f7-16" vertex="1">
          <mxGeometry y="164" width="220" height="26" as="geometry" />
        </mxCell>
        <mxCell id="tKDoVAYZ7wEW3-KZ-8f7-39" value="ConnectFourMove" style="swimlane;fontStyle=1;childLayout=stackLayout;horizontal=1;startSize=26;fillColor=none;horizontalStack=0;resizeParent=1;resizeParentMax=0;resizeLast=0;collapsible=1;marginBottom=0;fontFamily=Courier New;" parent="1" vertex="1">
          <mxGeometry x="680" y="524" width="140" height="52" as="geometry" />
        </mxCell>
        <mxCell id="tKDoVAYZ7wEW3-KZ-8f7-40" value="+ column: int" style="text;strokeColor=none;fillColor=none;align=left;verticalAlign=top;spacingLeft=4;spacingRight=4;overflow=hidden;rotatable=0;points=[[0,0.5],[1,0.5]];portConstraint=eastwest;fontFamily=Courier New;" parent="tKDoVAYZ7wEW3-KZ-8f7-39" vertex="1">
          <mxGeometry y="26" width="140" height="26" as="geometry" />
        </mxCell>
        <mxCell id="tKDoVAYZ7wEW3-KZ-8f7-43" value="HangmanMove" style="swimlane;fontStyle=1;childLayout=stackLayout;horizontal=1;startSize=26;fillColor=none;horizontalStack=0;resizeParent=1;resizeParentMax=0;resizeLast=0;collapsible=1;marginBottom=0;fontFamily=Courier New;" parent="1" vertex="1">
          <mxGeometry x="530" y="576" width="140" height="52" as="geometry" />
        </mxCell>
        <mxCell id="tKDoVAYZ7wEW3-KZ-8f7-44" value="+ letter: char" style="text;strokeColor=none;fillColor=none;align=left;verticalAlign=top;spacingLeft=4;spacingRight=4;overflow=hidden;rotatable=0;points=[[0,0.5],[1,0.5]];portConstraint=eastwest;fontFamily=Courier New;" parent="tKDoVAYZ7wEW3-KZ-8f7-43" vertex="1">
          <mxGeometry y="26" width="140" height="26" as="geometry" />
        </mxCell>
        <mxCell id="tKDoVAYZ7wEW3-KZ-8f7-47" value="CheckersMove" style="swimlane;fontStyle=1;childLayout=stackLayout;horizontal=1;startSize=26;fillColor=none;horizontalStack=0;resizeParent=1;resizeParentMax=0;resizeLast=0;collapsible=1;marginBottom=0;fontFamily=Courier New;" parent="1" vertex="1">
          <mxGeometry x="700" y="260" width="140" height="78" as="geometry" />
        </mxCell>
        <mxCell id="tKDoVAYZ7wEW3-KZ-8f7-48" value="+ fromPiece: int" style="text;strokeColor=none;fillColor=none;align=left;verticalAlign=top;spacingLeft=4;spacingRight=4;overflow=hidden;rotatable=0;points=[[0,0.5],[1,0.5]];portConstraint=eastwest;fontFamily=Courier New;" parent="tKDoVAYZ7wEW3-KZ-8f7-47" vertex="1">
          <mxGeometry y="26" width="140" height="26" as="geometry" />
        </mxCell>
        <mxCell id="tKDoVAYZ7wEW3-KZ-8f7-49" value="+ toPiece: int" style="text;strokeColor=none;fillColor=none;align=left;verticalAlign=top;spacingLeft=4;spacingRight=4;overflow=hidden;rotatable=0;points=[[0,0.5],[1,0.5]];portConstraint=eastwest;fontFamily=Courier New;" parent="tKDoVAYZ7wEW3-KZ-8f7-47" vertex="1">
          <mxGeometry y="52" width="140" height="26" as="geometry" />
        </mxCell>
        <mxCell id="tKDoVAYZ7wEW3-KZ-8f7-51" value="«interface»&lt;br&gt;&lt;b&gt;Move&lt;/b&gt;" style="html=1;fontFamily=Courier New;" parent="1" vertex="1">
          <mxGeometry x="570" y="380" width="110" height="50" as="geometry" />
        </mxCell>
        <mxCell id="tKDoVAYZ7wEW3-KZ-8f7-52" value="" style="endArrow=block;dashed=1;endFill=0;endSize=12;html=1;rounded=0;fontFamily=Courier New;entryX=0.5;entryY=0;entryDx=0;entryDy=0;exitX=0.5;exitY=1;exitDx=0;exitDy=0;" parent="1" source="tKDoVAYZ7wEW3-KZ-8f7-51" target="tKDoVAYZ7wEW3-KZ-8f7-39" edge="1">
          <mxGeometry width="160" relative="1" as="geometry">
            <mxPoint x="450" y="400" as="sourcePoint" />
            <mxPoint x="610" y="400" as="targetPoint" />
          </mxGeometry>
        </mxCell>
        <mxCell id="tKDoVAYZ7wEW3-KZ-8f7-53" value="" style="endArrow=block;dashed=1;endFill=0;endSize=12;html=1;rounded=0;fontFamily=Courier New;exitX=1;exitY=0.5;exitDx=0;exitDy=0;" parent="1" source="tKDoVAYZ7wEW3-KZ-8f7-51" target="tKDoVAYZ7wEW3-KZ-8f7-49" edge="1">
          <mxGeometry width="160" relative="1" as="geometry">
            <mxPoint x="635" y="440" as="sourcePoint" />
            <mxPoint x="640" y="560" as="targetPoint" />
          </mxGeometry>
        </mxCell>
        <mxCell id="tKDoVAYZ7wEW3-KZ-8f7-54" value="" style="endArrow=block;dashed=1;endFill=0;endSize=12;html=1;rounded=0;fontFamily=Courier New;exitX=0.5;exitY=1;exitDx=0;exitDy=0;entryX=0.5;entryY=0;entryDx=0;entryDy=0;" parent="1" source="tKDoVAYZ7wEW3-KZ-8f7-51" target="tKDoVAYZ7wEW3-KZ-8f7-43" edge="1">
          <mxGeometry width="160" relative="1" as="geometry">
            <mxPoint x="450" y="400" as="sourcePoint" />
            <mxPoint x="610" y="400" as="targetPoint" />
          </mxGeometry>
        </mxCell>
        <mxCell id="tKDoVAYZ7wEW3-KZ-8f7-55" value="Board" style="swimlane;fontStyle=3;align=center;verticalAlign=top;childLayout=stackLayout;horizontal=1;startSize=26;horizontalStack=0;resizeParent=1;resizeParentMax=0;resizeLast=0;collapsible=1;marginBottom=0;fontFamily=Courier New;" parent="1" vertex="1">
          <mxGeometry x="380" y="50" width="160" height="164" as="geometry" />
        </mxCell>
        <mxCell id="tKDoVAYZ7wEW3-KZ-8f7-60" value="+ turn: boolean" style="text;strokeColor=none;fillColor=none;align=left;verticalAlign=top;spacingLeft=4;spacingRight=4;overflow=hidden;rotatable=0;points=[[0,0.5],[1,0.5]];portConstraint=eastwest;fontFamily=Courier New;" parent="tKDoVAYZ7wEW3-KZ-8f7-55" vertex="1">
          <mxGeometry y="26" width="160" height="26" as="geometry" />
        </mxCell>
        <mxCell id="tKDoVAYZ7wEW3-KZ-8f7-61" value="- moves: List&lt;Move&gt;" style="text;strokeColor=none;fillColor=none;align=left;verticalAlign=top;spacingLeft=4;spacingRight=4;overflow=hidden;rotatable=0;points=[[0,0.5],[1,0.5]];portConstraint=eastwest;fontFamily=Courier New;" parent="tKDoVAYZ7wEW3-KZ-8f7-55" vertex="1">
          <mxGeometry y="52" width="160" height="26" as="geometry" />
        </mxCell>
        <mxCell id="w9P0QmHXWwVL7brIBfz7-1" value="- unmakeMove(Move)" style="text;strokeColor=none;fillColor=none;align=left;verticalAlign=top;spacingLeft=4;spacingRight=4;overflow=hidden;rotatable=0;points=[[0,0.5],[1,0.5]];portConstraint=eastwest;fontFamily=Courier New;" vertex="1" parent="tKDoVAYZ7wEW3-KZ-8f7-55">
          <mxGeometry y="78" width="160" height="26" as="geometry" />
        </mxCell>
        <mxCell id="tKDoVAYZ7wEW3-KZ-8f7-57" value="" style="line;strokeWidth=1;fillColor=none;align=left;verticalAlign=middle;spacingTop=-1;spacingLeft=3;spacingRight=3;rotatable=0;labelPosition=right;points=[];portConstraint=eastwest;strokeColor=inherit;fontFamily=Courier New;" parent="tKDoVAYZ7wEW3-KZ-8f7-55" vertex="1">
          <mxGeometry y="104" width="160" height="8" as="geometry" />
        </mxCell>
        <mxCell id="tKDoVAYZ7wEW3-KZ-8f7-58" value="+ makeMove(Move)" style="text;strokeColor=none;fillColor=none;align=left;verticalAlign=top;spacingLeft=4;spacingRight=4;overflow=hidden;rotatable=0;points=[[0,0.5],[1,0.5]];portConstraint=eastwest;fontFamily=Courier New;" parent="tKDoVAYZ7wEW3-KZ-8f7-55" vertex="1">
          <mxGeometry y="112" width="160" height="26" as="geometry" />
        </mxCell>
        <mxCell id="tKDoVAYZ7wEW3-KZ-8f7-59" value="+ undo()" style="text;strokeColor=none;fillColor=none;align=left;verticalAlign=top;spacingLeft=4;spacingRight=4;overflow=hidden;rotatable=0;points=[[0,0.5],[1,0.5]];portConstraint=eastwest;fontFamily=Courier New;" parent="tKDoVAYZ7wEW3-KZ-8f7-55" vertex="1">
          <mxGeometry y="138" width="160" height="26" as="geometry" />
        </mxCell>
        <mxCell id="tKDoVAYZ7wEW3-KZ-8f7-62" value="" style="endArrow=open;html=1;endSize=12;startArrow=diamondThin;startSize=14;startFill=0;edgeStyle=orthogonalEdgeStyle;rounded=0;fontFamily=Courier New;entryX=0.5;entryY=0;entryDx=0;entryDy=0;" parent="1" source="tKDoVAYZ7wEW3-KZ-8f7-61" target="tKDoVAYZ7wEW3-KZ-8f7-51" edge="1">
          <mxGeometry relative="1" as="geometry">
            <mxPoint x="600" y="310" as="sourcePoint" />
            <mxPoint x="600" y="340" as="targetPoint" />
          </mxGeometry>
        </mxCell>
        <mxCell id="tKDoVAYZ7wEW3-KZ-8f7-63" value="0..n" style="edgeLabel;resizable=0;html=1;align=left;verticalAlign=top;fontFamily=Courier New;" parent="tKDoVAYZ7wEW3-KZ-8f7-62" connectable="0" vertex="1">
          <mxGeometry x="-1" relative="1" as="geometry" />
        </mxCell>
        <mxCell id="tKDoVAYZ7wEW3-KZ-8f7-69" value="CheckersMoveGenerator" style="swimlane;fontStyle=1;childLayout=stackLayout;horizontal=1;startSize=26;fillColor=none;horizontalStack=0;resizeParent=1;resizeParentMax=0;resizeLast=0;collapsible=1;marginBottom=0;fontFamily=Courier New;" parent="1" vertex="1">
          <mxGeometry x="60" y="498" width="360" height="52" as="geometry" />
        </mxCell>
        <mxCell id="tKDoVAYZ7wEW3-KZ-8f7-70" value="+ generateMoves(CheckersBoard): CheckersMove[]" style="text;strokeColor=none;fillColor=none;align=left;verticalAlign=top;spacingLeft=4;spacingRight=4;overflow=hidden;rotatable=0;points=[[0,0.5],[1,0.5]];portConstraint=eastwest;fontFamily=Courier New;" parent="tKDoVAYZ7wEW3-KZ-8f7-69" vertex="1">
          <mxGeometry y="26" width="360" height="26" as="geometry" />
        </mxCell>
        <mxCell id="tKDoVAYZ7wEW3-KZ-8f7-74" value="&lt;p style=&quot;margin:0px;margin-top:4px;text-align:center;&quot;&gt;&lt;i&gt;&amp;lt;&amp;lt;Interface&amp;gt;&amp;gt;&lt;/i&gt;&lt;br&gt;&lt;b&gt;MoveGenerator&lt;/b&gt;&lt;/p&gt;&lt;hr size=&quot;1&quot;&gt;&lt;p style=&quot;margin:0px;margin-left:4px;&quot;&gt;+ generateMoves(Board): Move[]&lt;/p&gt;" style="verticalAlign=top;align=left;overflow=fill;fontSize=12;fontFamily=Helvetica;html=1;" parent="1" vertex="1">
          <mxGeometry x="140" y="322" width="190" height="78" as="geometry" />
        </mxCell>
        <mxCell id="tKDoVAYZ7wEW3-KZ-8f7-75" value="HangmanMoveGenerator" style="swimlane;fontStyle=1;childLayout=stackLayout;horizontal=1;startSize=26;fillColor=none;horizontalStack=0;resizeParent=1;resizeParentMax=0;resizeLast=0;collapsible=1;marginBottom=0;fontFamily=Courier New;" parent="1" vertex="1">
          <mxGeometry x="170" y="420" width="340" height="52" as="geometry" />
        </mxCell>
        <mxCell id="tKDoVAYZ7wEW3-KZ-8f7-76" value="+ generateMoves(HangmanBoard): HangmanMove[]" style="text;strokeColor=none;fillColor=none;align=left;verticalAlign=top;spacingLeft=4;spacingRight=4;overflow=hidden;rotatable=0;points=[[0,0.5],[1,0.5]];portConstraint=eastwest;fontFamily=Courier New;" parent="tKDoVAYZ7wEW3-KZ-8f7-75" vertex="1">
          <mxGeometry y="26" width="340" height="26" as="geometry" />
        </mxCell>
        <mxCell id="tKDoVAYZ7wEW3-KZ-8f7-78" value="ConnectFourMoveGenerator" style="swimlane;fontStyle=1;childLayout=stackLayout;horizontal=1;startSize=26;fillColor=none;horizontalStack=0;resizeParent=1;resizeParentMax=0;resizeLast=0;collapsible=1;marginBottom=0;fontFamily=Courier New;" parent="1" vertex="1">
          <mxGeometry x="40" y="579" width="390" height="52" as="geometry" />
        </mxCell>
        <mxCell id="tKDoVAYZ7wEW3-KZ-8f7-79" value="+ generateMoves(ConnectFourBoard): ConnectFourMove[]" style="text;strokeColor=none;fillColor=none;align=left;verticalAlign=top;spacingLeft=4;spacingRight=4;overflow=hidden;rotatable=0;points=[[0,0.5],[1,0.5]];portConstraint=eastwest;fontFamily=Courier New;" parent="tKDoVAYZ7wEW3-KZ-8f7-78" vertex="1">
          <mxGeometry y="26" width="390" height="26" as="geometry" />
        </mxCell>
        <mxCell id="tKDoVAYZ7wEW3-KZ-8f7-80" value="" style="endArrow=block;dashed=1;endFill=0;endSize=12;html=1;rounded=0;fontFamily=Courier New;exitX=1;exitY=0.5;exitDx=0;exitDy=0;entryX=0.66;entryY=-0.069;entryDx=0;entryDy=0;entryPerimeter=0;" parent="1" source="tKDoVAYZ7wEW3-KZ-8f7-74" target="tKDoVAYZ7wEW3-KZ-8f7-75" edge="1">
          <mxGeometry width="160" relative="1" as="geometry">
            <mxPoint x="340" y="360" as="sourcePoint" />
            <mxPoint x="500" y="360" as="targetPoint" />
          </mxGeometry>
        </mxCell>
        <mxCell id="tKDoVAYZ7wEW3-KZ-8f7-81" value="" style="endArrow=block;dashed=1;endFill=0;endSize=12;html=1;rounded=0;fontFamily=Courier New;exitX=0.5;exitY=1;exitDx=0;exitDy=0;entryX=0.422;entryY=-0.008;entryDx=0;entryDy=0;entryPerimeter=0;" parent="1" source="tKDoVAYZ7wEW3-KZ-8f7-74" target="tKDoVAYZ7wEW3-KZ-8f7-69" edge="1">
          <mxGeometry width="160" relative="1" as="geometry">
            <mxPoint x="340" y="371" as="sourcePoint" />
            <mxPoint x="404.4000000000001" y="426.41200000000003" as="targetPoint" />
            <Array as="points">
              <mxPoint x="100" y="420" />
              <mxPoint x="110" y="470" />
            </Array>
          </mxGeometry>
        </mxCell>
        <mxCell id="tKDoVAYZ7wEW3-KZ-8f7-82" value="" style="endArrow=block;dashed=1;endFill=0;endSize=12;html=1;rounded=0;fontFamily=Courier New;exitX=0;exitY=0.5;exitDx=0;exitDy=0;entryX=0;entryY=0.25;entryDx=0;entryDy=0;" parent="1" source="tKDoVAYZ7wEW3-KZ-8f7-74" target="tKDoVAYZ7wEW3-KZ-8f7-78" edge="1">
          <mxGeometry width="160" relative="1" as="geometry">
            <mxPoint x="340" y="360" as="sourcePoint" />
            <mxPoint x="500" y="360" as="targetPoint" />
            <Array as="points">
              <mxPoint x="30" y="390" />
            </Array>
          </mxGeometry>
        </mxCell>
        <mxCell id="tKDoVAYZ7wEW3-KZ-8f7-83" value="" style="endArrow=block;endFill=1;html=1;edgeStyle=orthogonalEdgeStyle;align=left;verticalAlign=top;rounded=0;fontFamily=Courier New;exitX=1;exitY=0.5;exitDx=0;exitDy=0;" parent="1" source="tKDoVAYZ7wEW3-KZ-8f7-28" edge="1">
          <mxGeometry x="-1" relative="1" as="geometry">
            <mxPoint x="340" y="360" as="sourcePoint" />
            <mxPoint x="290" y="320" as="targetPoint" />
          </mxGeometry>
        </mxCell>
        <mxCell id="tKDoVAYZ7wEW3-KZ-8f7-84" value="1" style="edgeLabel;resizable=0;html=1;align=left;verticalAlign=bottom;fontFamily=Courier New;" parent="tKDoVAYZ7wEW3-KZ-8f7-83" connectable="0" vertex="1">
          <mxGeometry x="-1" relative="1" as="geometry" />
        </mxCell>
        <mxCell id="tKDoVAYZ7wEW3-KZ-8f7-85" value="" style="endArrow=block;endFill=1;html=1;edgeStyle=orthogonalEdgeStyle;align=left;verticalAlign=top;rounded=0;fontFamily=Courier New;exitX=1;exitY=0.5;exitDx=0;exitDy=0;entryX=-0.018;entryY=0.115;entryDx=0;entryDy=0;entryPerimeter=0;" parent="1" source="tKDoVAYZ7wEW3-KZ-8f7-20" target="tKDoVAYZ7wEW3-KZ-8f7-55" edge="1">
          <mxGeometry x="-1" relative="1" as="geometry">
            <mxPoint x="340" y="360" as="sourcePoint" />
            <mxPoint x="500" y="360" as="targetPoint" />
          </mxGeometry>
        </mxCell>
        <mxCell id="tKDoVAYZ7wEW3-KZ-8f7-86" value="1" style="edgeLabel;resizable=0;html=1;align=left;verticalAlign=bottom;fontFamily=Courier New;" parent="tKDoVAYZ7wEW3-KZ-8f7-85" connectable="0" vertex="1">
          <mxGeometry x="-1" relative="1" as="geometry" />
        </mxCell>
      </root>
    </mxGraphModel>
  </diagram>
</mxfile>
